<svg xmlns="http://www.w3.org/2000/svg" version="1.1" xmlns:xlink="http://www.w3.org/1999/xlink" width="512" height="512" x="0" y="0" viewBox="0 0 24 24" style="enable-background:new 0 0 512 512" xml:space="preserve"><g><path d="M7 18c-.3 0-.5-.1-.7-.3-.4-.4-.4-1 0-1.4l10-10c.4-.4 1-.4 1.4 0s.4 1 0 1.4l-10 10c-.2.2-.4.3-.7.3z" fill="#000" opacity="1" data-original="#000000"></path><path d="M17 17c-.6 0-1-.4-1-1V8H8c-.6 0-1-.4-1-1s.4-1 1-1h9c.6 0 1 .4 1 1v9c0 .6-.4 1-1 1z" fill="#000" opacity="1" data-original="#000000"></path></g></svg>