<svg xmlns="http://www.w3.org/2000/svg" version="1.1" xmlns:xlink="http://www.w3.org/1999/xlink" width="512" height="512" x="0" y="0" viewBox="0 0 512 512" style="enable-background:new 0 0 512 512" xml:space="preserve" class=""><g><path d="M67.16 393.56c0 27.91 22.7 50.61 50.61 50.61h54.65c-1.7 5.94-.1 12.33 4.36 16.79 3.29 3.29 7.64 5.03 12.08 5.03 2.3 0 4.63-.47 6.85-1.43l47.05-20.39h99.63c27.91 0 50.61-22.7 50.61-50.61v-82.93l45.44-45.44c4.14-4.14 6.42-9.64 6.42-15.49s-2.28-11.36-6.42-15.5l-34.9-34.9c-3.01-3-6.68-4.93-10.54-5.82V159.1c0-7.14-1.48-14.06-4.39-20.6-.04-.1-.08-.19-.12-.29v-.02a50.731 50.731 0 0 0-10.31-14.87l-62.51-62.51a50.19 50.19 0 0 0-14.82-10.27c-.05-.02-.09-.04-.14-.06-.07-.03-.15-.06-.22-.1a50.26 50.26 0 0 0-20.6-4.39H117.77c-27.91 0-50.61 22.7-50.61 50.61zm127.25 49.77 2.25-5.2s.03-.08.05-.11l21.38-49.31 30.95 30.95-12.22 5.3-.05.02-42.35 18.36zm158.01-195.61 37.6 37.6L266.5 408.84l-37.6-37.6zm20.57 145.84c0 16.88-13.73 30.61-30.61 30.61h-62.93l93.54-93.54zm51.3-145.21c.75.75.75 1.96 0 2.7l-20.12 20.12-37.6-37.6 20.12-20.12c.75-.75 1.96-.75 2.71 0l34.9 34.9zM359.2 132.64l-45.13.66c-1.98.03-3.8-.71-5.19-2.08a7.228 7.228 0 0 1-2.17-5.19V80.14l52.49 52.49zM87.16 96.61c0-16.88 13.73-30.61 30.61-30.61h162.11c2.32 0 4.59.26 6.82.77v59.26c0 7.37 2.89 14.27 8.14 19.44 5.14 5.06 11.91 7.83 19.09 7.83h.44l57.89-.85c.49 2.18.73 4.4.73 6.66v39.79c-.15.14-.3.26-.45.4L207.69 364.16c-.07.07-.12.14-.19.21-.14.15-.28.3-.41.46-.08.1-.16.2-.24.31-.12.15-.24.31-.35.47-.09.13-.16.26-.24.38-.09.15-.18.29-.27.45s-.16.33-.24.49c-.05.11-.11.21-.16.33l-24.67 56.91h-63.15c-16.88 0-30.61-13.73-30.61-30.61z" fill="#000000" opacity="1" data-original="#000000" class=""></path><path d="M133.74 125.9h109.25c5.52 0 10-4.48 10-10s-4.48-10-10-10H133.74c-5.52 0-10 4.48-10 10s4.48 10 10 10zM133.74 170.42h109.25c5.52 0 10-4.48 10-10s-4.48-10-10-10H133.74c-5.52 0-10 4.48-10 10s4.48 10 10 10zM133.74 214.93h109.25c5.52 0 10-4.48 10-10s-4.48-10-10-10H133.74c-5.52 0-10 4.48-10 10s4.48 10 10 10zM133.74 259.45h109.25c5.52 0 10-4.48 10-10s-4.48-10-10-10H133.74c-5.52 0-10 4.48-10 10s4.48 10 10 10z" fill="#000000" opacity="1" data-original="#000000" class=""></path></g></svg>